<svg width="800" height="800" viewBox="0 0 800 800" fill="none" xmlns="http://www.w3.org/2000/svg">
<path d="M705.177 272.747C700.532 276.348 618.521 322.512 618.521 425.163C618.521 543.894 722.877 585.899 726 586.939C725.519 589.499 709.422 644.464 670.979 700.47C636.701 749.755 600.902 798.96 546.442 798.96C491.982 798.96 477.966 767.357 415.097 767.357C353.829 767.357 332.045 800 282.23 800C232.415 800 197.657 754.395 157.692 698.39C111.401 632.623 74 530.453 74 433.483C74 277.948 175.232 195.46 274.862 195.46C327.8 195.46 371.929 230.183 405.166 230.183C436.801 230.183 486.135 193.379 546.362 193.379C569.187 193.379 651.197 195.46 705.177 272.747ZM517.77 127.533C542.678 98.0098 560.297 57.0457 560.297 16.0816C560.297 10.401 559.816 4.64046 558.775 0C518.251 1.52015 470.037 26.9627 440.965 60.6461C418.14 86.5687 396.837 127.533 396.837 169.057C396.837 175.298 397.878 181.538 398.358 183.538C400.921 184.018 405.086 184.578 409.25 184.578C445.61 184.578 491.341 160.256 517.77 127.533Z" fill="white"/>
</svg>
