<svg width="800" height="800" viewBox="0 0 800 800" fill="none" xmlns="http://www.w3.org/2000/svg">
<path d="M589.934 270.089C496.999 218.11 355.56 138.964 124.197 9.41863C108.599 -0.882957 90.6517 -2.23296 75.1454 3.01549L460.054 399.969L589.934 270.089Z" fill="#32BBFF"/>
<path d="M75.1454 3.01549C72.2391 3.99987 69.411 5.18737 66.7063 6.62175C49.5828 15.8843 37 33.7077 37 56.25V743.689C37 766.231 49.5813 784.055 66.7063 793.315C69.4063 794.748 72.2329 795.941 75.136 796.931L460.054 399.969L75.1454 3.01549Z" fill="#32BBFF"/>
<path d="M460.054 399.969L75.136 796.931C90.647 802.219 108.594 800.972 124.197 790.52C348.569 664.879 496.051 582.401 590.06 529.979C592.678 528.509 587.526 531.401 590.06 529.977L460.054 399.969Z" fill="#32BBFF"/>
<path d="M37 399.969V743.689C37 766.231 49.5813 784.055 66.7063 793.315C69.4063 794.748 72.2329 795.941 75.136 796.931L460.054 399.969H37Z" fill="#2C9FD9"/>
<path d="M124.197 9.41863C105.674 -2.81265 83.8298 -2.46421 66.7063 6.62331L460.054 399.969L589.934 270.089C497.001 218.11 355.56 138.964 124.197 9.41863Z" fill="#29CC5E"/>
<path d="M460.054 399.969L66.7063 793.315C83.8313 802.401 105.674 802.926 124.197 790.52C348.569 664.879 496.051 582.401 590.06 529.979C592.678 528.509 587.526 531.401 590.06 529.977L460.054 399.969Z" fill="#D93F21"/>
<path d="M763.409 399.969C763.409 380.922 753.798 361.701 734.75 351.041C734.75 351.041 699.126 331.165 589.934 270.089L460.054 399.969L590.06 529.977C698.054 469.341 734.748 448.896 734.748 448.896C753.798 438.238 763.409 419.016 763.409 399.969Z" fill="#FFD500"/>
<path d="M734.75 448.898C753.798 438.238 763.409 419.016 763.409 399.969H460.054L590.06 529.977C698.056 469.343 734.75 448.898 734.75 448.898Z" fill="#FFAA00"/>
</svg>
